<svg xmlns="http://www.w3.org/2000/svg" viewBox="0 0 1024 1024" width="1024" height="1024">
  <title>Simon Says</title>
  <rect width="1024" height="1024" fill="#FFFFFF"/>
  <g transform="translate(0.000000,1024.000000) scale(0.100000,-0.100000)">
    <path fill="#7A1F3D" d="M4415 8323 c-700 -68 -1224 -375 -1468 -858 -288 -571 -66 -1211 556
-1597 352 -219 808 -350 1617 -463 603 -84 855 -128 1105 -192 691 -176 1116
-495 1304 -978 22 -55 45 -128 52 -162 7 -35 16 -63 20 -63 12 0 22 246 15
359 -10 154 -32 270 -76 404 -147 441 -447 736 -950 937 -256 102 -536 169
-1110 265 -267 45 -329 59 -402 92 -182 81 -198 267 -31 350 l58 28 580 3 580
3 175 -82 c96 -45 265 -123 375 -174 110 -51 317 -147 459 -214 143 -67 269
-121 281 -121 27 0 55 29 55 57 0 12 -76 158 -168 325 -93 167 -174 312 -180
324 -9 18 -7 27 17 60 115 156 182 391 167 584 -18 245 -124 462 -320 655
-232 229 -544 375 -946 441 -93 15 -199 18 -915 19 -445 1 -828 1 -850 -2z"/>
    <path fill="#1a6e99" d="M2676 6657 c-46 -234 -63 -759 -31 -999 81 -615 473 -1073 1142
-1335 62 -24 157 -56 210 -71 l97 -27 -425 -6 c-473 -6 -476 -7 -625 -80 -334
-163 -495 -553 -375 -908 66 -195 188 -348 387 -484 l62 -42 -179 -357 c-99
-197 -179 -368 -179 -381 0 -28 29 -57 56 -57 11 0 134 61 274 136 140 75 368
196 506 269 l251 132 139 -20 c129 -18 207 -20 1074 -24 992 -5 1069 -2 1275
41 490 104 900 410 1066 796 257 596 -11 1215 -666 1542 -359 180 -699 259
-1489 349 -682 77 -971 127 -1286 225 -724 225 -1142 654 -1237 1270 -10 63
-20 114 -24 114 -3 0 -14 -37 -23 -83z"/>
  </g>
</svg>
